Format : MPEG-4
Format profile : Base Media / Version 2
Codec ID : mp42
File size : 323 MiB
Duration : 1h 18mn
Overall bit rate : 576 Kbps
Encoded date : UTC 2010-10-17 12:27:35
Tagged date : UTC 2010-10-17 12:27:58
Writing application : mp4creator 1.6.1d

Video
ID : 1
Format : AVC
Format/Info : Advanced Video Codec
Format profile : Baseline@L1.3
Format settings, CABAC : No
Format settings, ReFrames : 1 frame
Codec ID : avc1
Codec ID/Info : Advanced Video Coding
Duration : 1h 18mn
Bit rate mode : Variable
Bit rate : 512 Kbps
Width : 480 pixels
Height : 272 pixels
Display aspect ratio : 16:9
Original display aspect ratio : 16:9
Frame rate mode : Constant
Frame rate : 24.000 fps
Resolution : 24 bits
Colorimetry : 4:2:0
Scan type : Progressive
Bits/(Pixel*Frame) : 0.163
Stream size : 287 MiB (89%)
Encoded date : UTC 2010-10-17 12:27:35
Tagged date : UTC 2010-10-17 12:27:57

Audio
ID : 2
Format : AAC
Format/Info : Advanced Audio Codec
Format version : Version 4
Format profile : LC
Format settings, SBR : Yes
Format settings, PS : No
Codec ID : 40
Duration : 1h 18mn
Bit rate mode : Variable
Bit rate : 62.7 Kbps
Maximum bit rate : 163 Kbps
Channel(s) : 2 channels
Channel positions : L R
Sampling rate : 48.0 KHz
Resolution : 16 bits
Stream size : 35.1 MiB (11%)
Encoded date : UTC 2010-10-17 12:27:58
Tagged date : UTC 2010-10-17 12:27:58

An upper-middle-class couple's life is destroyed as their single outcome is kidnapped and killed. Obsessed with revenge, the link seizes an opportunity to kidnap the killer.
Genre:............: Horror | Thriller
Directed by.......: Robert Lieberman
Starring..........: Erika Christensen, Jesse Metcalfe, Bill
 
http://www.imdb.com/title/tt1017464/

screen shots
 
http://img259.imageshack.us/img259/7293/thetorturedh264vicemp4s.jpg 
http://img155.imageshack.us/img155/7293/thetorturedh264vicemp4s.jpg 
http://img140.imageshack.us/img140/7293/thetorturedh264vicemp4s.jpg 
http://img704.imageshack.us/img704/7293/thetorturedh264vicemp4s.jpg
 
http://img169.imageshack.us/img169/5535/thetorturedh264vicemp4t.jpg